<!--?xml version="1.0" standalone="no"?-->
              <svg id="sw-js-blob-svg" viewBox="0 0 100 100" xmlns="http://www.w3.org/2000/svg" version="1.1">
                    <defs> 
                        <linearGradient id="sw-gradient" x1="0" x2="1" y1="1" y2="0">
                            <stop id="stop1" stop-color="rgba(18, 20, 20, 1)" offset="0%"></stop>
                            <stop id="stop2" stop-color="rgba(0, 41, 29, 1)" offset="100%"></stop>
                        </linearGradient>
                    </defs>
                <path fill="url(#sw-gradient)" d="M22.8,-28.5C30.6,-25.7,38.8,-20.5,40.2,-13.7C41.6,-6.8,36.2,1.6,32.1,9.2C27.9,16.8,25,23.6,19.9,29.2C14.7,34.9,7.4,39.4,-0.4,39.9C-8.1,40.4,-16.2,37,-23.3,31.9C-30.3,26.9,-36.2,20.3,-38.8,12.6C-41.3,4.8,-40.5,-4.1,-38.4,-13C-36.2,-22,-32.7,-31,-26,-34.2C-19.4,-37.4,-9.7,-34.6,-1.1,-33.1C7.5,-31.6,15,-31.3,22.8,-28.5Z" width="100%" height="100%" transform="translate(50 50)" stroke-width="0" style="transition: all 0.3s ease 0s;" stroke="url(#sw-gradient)"></path>
              </svg>